<?xml version="1.0" standalone="no"?>
<svg viewBox="0 0 200 200" xmlns="http://www.w3.org/2000/svg">
  <path fill="#A7F0BA" d="M46.5,-71.6C59.9,-63.8,70.1,-50.2,76.5,-35.2C82.9,-20.2,85.6,-3.8,83.7,12.3C81.9,28.4,75.5,44.2,65.1,56.8C54.8,69.4,40.3,78.8,24.9,82.1C9.5,85.4,-7,82.6,-21,76.3C-35,70,-46.5,60.1,-55.3,48.7C-64,37.2,-70,24,-72.2,10.2C-74.5,-3.6,-72.9,-18.1,-67.5,-31.2C-62.1,-44.3,-52.8,-56.1,-40.9,-64.6C-29.1,-73.1,-14.5,-78.5,1,-80C16.6,-81.6,33.1,-79.5,46.5,-71.6Z" transform="translate(100 100)" />
</svg>
