<?xml version="1.0" standalone="no"?>
<svg viewBox="0 0 200 200" xmlns="http://www.w3.org/2000/svg">
  <path fill="#FFD6E8" d="M41.4,-71.1C51.1,-66,54.8,-49.9,61.4,-36.2C67.9,-22.5,77.4,-11.3,81.7,2.5C86.1,16.3,85.4,32.6,77.1,43.3C68.8,54,53,59.1,38.8,63.9C24.7,68.7,12.4,73.1,-1.8,76.3C-16,79.4,-32,81.3,-42.5,74.4C-52.9,67.5,-57.8,51.8,-64.4,38C-71.1,24.1,-79.6,12,-79,0.3C-78.4,-11.4,-68.8,-22.7,-60.6,-34C-52.4,-45.2,-45.6,-56.3,-35.8,-61.3C-25.9,-66.4,-13,-65.4,1.4,-67.9C15.8,-70.4,31.6,-76.2,41.4,-71.1Z" transform="translate(100 100)" />
</svg>
