<?xml version="1.0" standalone="no"?>
<svg viewBox="0 0 200 200" xmlns="http://www.w3.org/2000/svg">
  <path fill="#F1C21B" d="M26.7,-44.5C36.8,-35.1,48.6,-31.3,59.6,-22.7C70.6,-14,80.8,-0.5,79.4,11.6C78,23.7,65,34.4,52.9,42.8C40.9,51.3,29.8,57.6,16.8,64.8C3.8,72.1,-11.1,80.4,-20.2,74.9C-29.3,69.5,-32.6,50.3,-41.2,37.4C-49.8,24.5,-63.6,17.8,-68,7.9C-72.4,-2.1,-67.5,-15.3,-60.3,-26.1C-53.2,-36.9,-43.9,-45.3,-33.4,-54.6C-23,-63.8,-11.5,-73.9,-1.6,-71.4C8.3,-69,16.6,-53.9,26.7,-44.5Z" transform="translate(100 100)" />
</svg>
