<?xml version="1.0" standalone="no"?>
<svg viewBox="0 0 200 200" xmlns="http://www.w3.org/2000/svg">
  <path fill="#08BDBA" d="M37,-64.2C50.6,-56.3,66,-51.7,73.4,-41.5C80.7,-31.4,80,-15.7,75.4,-2.6C70.9,10.4,62.6,20.9,55.1,30.8C47.6,40.8,41.1,50.2,32,59.1C23,67.9,11.5,76.1,-2,79.6C-15.5,83.1,-31,81.9,-44.9,75.8C-58.8,69.8,-71,58.9,-78.7,45.5C-86.3,32.1,-89.3,16,-86.1,1.8C-82.9,-12.3,-73.5,-24.7,-64.2,-35.2C-54.9,-45.8,-45.8,-54.6,-35.1,-64.2C-24.4,-73.8,-12.2,-84.3,-0.2,-83.8C11.7,-83.4,23.5,-72.2,37,-64.2Z" transform="translate(100 100)" />
</svg>
