<?xml version="1.0" standalone="no"?>
<svg viewBox="0 0 200 200" xmlns="http://www.w3.org/2000/svg">
  <path fill="#F1C21B" d="M49.2,-74.7C62.7,-67.8,71.8,-52.4,78.5,-36.3C85.2,-20.2,89.4,-3.4,84.6,10.4C79.8,24.1,66.1,34.7,52.8,40.2C39.5,45.7,26.5,46.1,13.7,52.4C0.9,58.8,-11.8,71.2,-23.9,72C-36.1,72.8,-47.6,62,-52.9,49.4C-58.1,36.9,-57.1,22.5,-58.9,8.6C-60.7,-5.3,-65.4,-18.6,-61.9,-29C-58.3,-39.4,-46.6,-46.9,-34.9,-54.6C-23.3,-62.3,-11.6,-70.4,3.1,-75.2C17.8,-80,35.6,-81.6,49.2,-74.7Z" transform="translate(100 100)" />
</svg>
